<?xml version="1.0" encoding="utf-8"?>
<!-- Generator: Adobe Illustrator 18.1.1, SVG Export Plug-In . SVG Version: 6.00 Build 0)  -->
<svg version="1.1" id="Layer_1" xmlns="http://www.w3.org/2000/svg" xmlns:xlink="http://www.w3.org/1999/xlink" x="0px" y="0px"
	 viewBox="0 0 400 80" enable-background="new 0 0 400 80" xml:space="preserve">
<g>
	<g>
		<g>
			<path fill="#404041" d="M201.6,62H193l-6.3-30.5l-14.6,28.1c-1,1.9-2.3,2.9-4.1,2.9c-1.9,0-3.4-1-4.5-2.9l-14.6-28L142.8,62h-8.6
				l9.7-39.9c0.3-1.2,0.8-2.2,1.7-3c0.9-0.9,1.9-1.3,3-1.3c1.6,0,3.2,1.4,4.7,4.3l14.5,28.5l14.6-28.5c1.5-2.8,3.1-4.3,4.7-4.3
				c1.1,0,2.1,0.4,3.1,1.3c0.8,0.8,1.3,1.8,1.6,2.9L201.6,62z"/>
			<path fill="#404041" d="M218.5,61.9H211V18.4h7.6V61.9z"/>
			<path fill="#404041" d="M268,26h-17.1v35.9h-7.5V26h-17.2v-7.6H268V26z"/>
			<path fill="#404041" d="M281,61.9h-7.6V18.4h7.6V61.9z M317.5,61.9H310V43.8h-25.5v-7.6H310V18.4h7.6V61.9z"/>
			<path fill="#404041" d="M371.7,48.5c0,4.1-1.5,7.4-4.4,10c-2.8,2.3-6.3,3.5-10.5,3.5h-33.2v-7.6h33.2c2.1,0,3.9-0.5,5.4-1.4
				c1.8-1.2,2.6-2.7,2.6-4.7c0-1.9-0.9-3.5-2.7-4.5c-1.5-0.9-3.3-1.3-5.4-1.3h-20.5c-3.8,0-6.9-1-9.5-3.1c-2.7-2.2-4.1-5.2-4.1-8.9
				c0-3.7,1.3-6.6,4.1-8.9c2.5-2.1,5.7-3.1,9.5-3.1H369V26h-32.8c-1.5,0-2.7,0.4-3.7,1.2c-1,0.8-1.5,1.9-1.5,3.2
				c0,1.4,0.5,2.5,1.5,3.2c1,0.8,2.2,1.2,3.7,1.2h20.5c4.2,0,7.7,1.2,10.5,3.6C370.2,41,371.7,44.4,371.7,48.5z"/>
		</g>
		<path fill="#26A9E0" d="M67.5,43.8c1.8,1,2.7,2.6,2.7,4.5c0,0,0,0.1,0,0.1H77c0-4.1-1.5-7.4-4.5-10c-2.8-2.4-6.3-3.6-10.4-3.6
			H36.3V26h38.1v-7.6H28.9v24h33.2C64.1,42.4,65.9,42.9,67.5,43.8z"/>
		<path fill="#26A9E0" d="M125.6,38.5c-2.8-2.4-6.3-3.6-10.5-3.6H94.6c-1.5,0-2.7-0.4-3.7-1.2c-1-0.7-1.5-1.9-1.5-3.2
			c0-1.3,0.5-2.4,1.5-3.2s2.2-1.2,3.7-1.2h32.8v-7.6H94.6c-3.8,0-6.9,1-9.5,3.1c-2.7,2.2-4.1,5.2-4.1,8.9c0,3.7,1.3,6.7,4.1,8.9
			c2.5,2.1,5.7,3.1,9.5,3.1h20.5c2.1,0,3.9,0.4,5.4,1.3c1.8,1,2.7,2.6,2.7,4.5c0,1.9-0.9,3.5-2.6,4.7c-1.5,0.9-3.3,1.4-5.4,1.4H75.7
			H62.1H28.9V62h33.2h53c4.2,0,7.7-1.2,10.5-3.5c2.9-2.5,4.4-5.8,4.4-10C130,44.4,128.6,41,125.6,38.5z"/>
	</g>
</g>
</svg>
